<svg width="257" height="38" viewBox="0 0 257 38" fill="none" xmlns="http://www.w3.org/2000/svg">
<g filter="url(#filter0_d_101_2)">
<path d="M33.6084 13.83C33.6084 21.705 29.7384 29.175 22.4484 31.785C20.0634 32.64 17.8134 33 12.6384 33H0.983398L8.2284 1.23H20.7834C21.6384 1.23 22.4484 1.365 23.2584 1.455C26.6334 1.905 28.4784 2.985 29.6484 3.93C31.5384 5.415 33.6084 8.115 33.6084 13.83ZM25.5084 13.83C25.5084 11.31 24.8784 10.14 24.1134 9.285C23.3034 8.34 22.4034 7.935 21.9984 7.8C21.1434 7.485 20.3334 7.305 18.4884 7.305H14.5284L10.1184 26.88H13.6284C16.2834 26.88 18.8934 26.7 21.0084 24.9C22.6284 23.46 25.5534 19.725 25.5084 13.83ZM67.0884 13.965C67.0884 15.81 66.8184 19.68 64.5684 24C63.7134 25.62 62.8584 26.745 62.4534 27.285C61.1934 28.86 58.4034 32.055 53.3184 33.27C52.5984 33.45 50.8434 33.765 48.7734 33.765C42.9234 33.765 39.4584 31.425 37.8384 29.67C36.4884 28.185 34.6434 25.08 34.6434 19.95C34.6434 17.745 35.0484 15.81 35.2284 15.09C36.2634 10.995 38.5584 6.765 41.8434 4.065C42.6534 3.39 44.2734 2.22 46.7934 1.365C47.7834 1.005 50.0784 0.374999 52.9584 0.374999C56.9184 0.374999 60.7434 1.545 63.4884 4.29C67.0434 7.89 67.0884 12.255 67.0884 13.965ZM59.1684 13.92C59.1684 13.425 59.1684 11.805 58.4934 10.365C57.3684 7.935 54.6684 6.72 51.9684 6.855C50.9784 6.9 50.0784 7.17 49.8084 7.26C48.0534 7.845 45.8034 9.24 44.1834 13.155C43.3284 15.18 42.6534 18.15 42.6534 20.31C42.6534 21.48 42.7884 22.47 43.1934 23.505C44.2284 26.115 46.4784 27.555 49.2684 27.51C51.7884 27.51 53.5884 26.25 54.2634 25.71C57.4584 23.145 59.1684 17.745 59.1684 13.92ZM113.753 1.23L97.913 33H88.913L89.453 12.48L80.363 33H71.363L70.328 1.23H77.978V24.09L88.148 1.23H95.708L95.348 24.225L106.013 1.23H113.753ZM140.641 1.23L133.396 33H125.656L119.401 12.615L114.901 33H107.611L114.901 1.23H122.731L129.076 21.705L133.396 1.23H140.641ZM178.711 8.745C178.711 11.625 177.361 14.055 174.796 15.36C174.166 15.675 173.536 15.9 172.231 16.26C172.546 16.395 174.346 17.16 175.426 18.105C176.866 19.32 177.586 21.345 177.586 23.415C177.586 23.955 177.541 24.9 177.136 26.115C175.921 29.85 172.996 31.38 171.781 31.92C170.206 32.595 168.991 33 165.796 33H148.111L155.311 1.23H169.621C171.961 1.23 174.211 1.455 176.101 2.94C176.371 3.12 177.046 3.705 177.541 4.515C177.991 5.19 178.711 6.63 178.711 8.745ZM170.971 9.87C170.971 9.555 170.926 8.655 170.341 7.98C170.026 7.62 169.576 7.35 169.441 7.305C168.766 6.99 167.551 6.945 167.461 6.945H161.701L160.171 13.74H166.066C167.641 13.74 169.306 13.56 170.296 12.165C170.521 11.85 170.971 11.04 170.971 9.87ZM169.351 22.74C169.351 20.715 167.956 19.95 167.236 19.725C166.561 19.5 165.661 19.5 165.481 19.5H158.866L157.156 27.15H164.041C165.931 27.15 167.506 26.97 168.631 25.35C169.126 24.585 169.351 23.685 169.351 22.74ZM206.342 33H198.602L198.197 26.7H186.497L182.987 33H174.662L194.057 1.23H202.967L206.342 33ZM197.837 20.94L196.982 7.89L189.737 20.94H197.837ZM240.002 13.83C240.002 21.705 236.132 29.175 228.842 31.785C226.457 32.64 224.207 33 219.032 33H207.377L214.622 1.23H227.177C228.032 1.23 228.842 1.365 229.652 1.455C233.027 1.905 234.872 2.985 236.042 3.93C237.932 5.415 240.002 8.115 240.002 13.83ZM231.902 13.83C231.902 11.31 231.272 10.14 230.507 9.285C229.697 8.34 228.797 7.935 228.392 7.8C227.537 7.485 226.727 7.305 224.882 7.305H220.922L216.512 26.88H220.022C222.677 26.88 225.287 26.7 227.402 24.9C229.022 23.46 231.947 19.725 231.902 13.83ZM254.177 1.23L251.972 11.04L247.382 22.02H244.457L244.817 11.04L247.067 1.23H254.177ZM248.552 25.755L246.932 33H239.822L241.442 25.755H248.552Z" fill="white"/>
<path d="M22.4484 31.785L21.7743 29.902L21.7735 29.9023L22.4484 31.785ZM0.983398 33L-0.966541 32.5553L-1.52404 35H0.983398V33ZM8.2284 1.23V-0.770001H6.63314L6.27846 0.785324L8.2284 1.23ZM23.2584 1.455L23.5227 -0.527457L23.501 -0.530351L23.4793 -0.532769L23.2584 1.455ZM29.6484 3.93L28.3917 5.48588L28.4022 5.49433L28.4128 5.50264L29.6484 3.93ZM25.5084 13.83H23.5084V13.8376L23.5085 13.8453L25.5084 13.83ZM24.1134 9.285L22.5949 10.5866L22.6087 10.6027L22.6229 10.6186L24.1134 9.285ZM21.9984 7.8L21.307 9.67669L21.3363 9.68749L21.366 9.69737L21.9984 7.8ZM14.5284 7.305V5.305H12.9288L12.5773 6.86544L14.5284 7.305ZM10.1184 26.88L8.1673 26.4404L7.6177 28.88H10.1184V26.88ZM21.0084 24.9L22.3046 26.4231L22.321 26.4091L22.3371 26.3948L21.0084 24.9ZM31.6084 13.83C31.6084 21.1344 28.0387 27.6592 21.7743 29.902L23.1225 33.668C31.4381 30.6908 35.6084 22.2756 35.6084 13.83H31.6084ZM21.7735 29.9023C19.6996 30.6458 17.7116 31 12.6384 31V35C17.9152 35 20.4272 34.6342 23.1233 33.6677L21.7735 29.9023ZM12.6384 31H0.983398V35H12.6384V31ZM2.93334 33.4447L10.1783 1.67467L6.27846 0.785324L-0.966541 32.5553L2.93334 33.4447ZM8.2284 3.23H20.7834V-0.770001H8.2284V3.23ZM20.7834 3.23C21.4908 3.23 22.0887 3.33734 23.0375 3.44277L23.4793 -0.532769C22.8081 -0.607337 21.786 -0.770001 20.7834 -0.770001V3.23ZM22.9941 3.43745C26.0012 3.8384 27.5038 4.7687 28.3917 5.48588L30.9051 2.37412C29.453 1.2013 27.2656 -0.0284081 23.5227 -0.527457L22.9941 3.43745ZM28.4128 5.50264C29.8061 6.59744 31.6084 8.71066 31.6084 13.83H35.6084C35.6084 7.51934 33.2707 4.23256 30.884 2.35736L28.4128 5.50264ZM27.5084 13.83C27.5084 10.8899 26.742 9.22341 25.6039 7.95141L22.6229 10.6186C22.8677 10.8922 23.0628 11.1783 23.2126 11.6011C23.3707 12.0471 23.5084 12.7324 23.5084 13.83H27.5084ZM25.6319 7.98342C24.5317 6.69982 23.2908 6.12263 22.6308 5.90263L21.366 9.69737C21.516 9.74737 22.0751 9.98017 22.5949 10.5866L25.6319 7.98342ZM22.6898 5.92331C21.5621 5.50783 20.5076 5.305 18.4884 5.305V9.305C20.1592 9.305 20.7247 9.46217 21.307 9.67669L22.6898 5.92331ZM18.4884 5.305H14.5284V9.305H18.4884V5.305ZM12.5773 6.86544L8.1673 26.4404L12.0695 27.3196L16.4795 7.74456L12.5773 6.86544ZM10.1184 28.88H13.6284V24.88H10.1184V28.88ZM13.6284 28.88C16.2878 28.88 19.584 28.7385 22.3046 26.4231L19.7122 23.3769C18.2028 24.6615 16.279 24.88 13.6284 24.88V28.88ZM22.3371 26.3948C24.2809 24.667 27.5587 20.4157 27.5083 13.8147L23.5085 13.8453C23.5481 19.0343 20.9759 22.253 19.6797 23.4052L22.3371 26.3948ZM64.5684 24L66.3372 24.9335L66.3422 24.9239L64.5684 24ZM62.4534 27.285L64.0151 28.5344L64.0347 28.51L64.0534 28.485L62.4534 27.285ZM53.3184 33.27L52.8536 31.3248L52.8435 31.3272L52.8333 31.3297L53.3184 33.27ZM37.8384 29.67L36.3585 31.0153L36.3636 31.021L36.3688 31.0266L37.8384 29.67ZM35.2284 15.09L33.2894 14.5999L33.2881 14.6049L35.2284 15.09ZM41.8434 4.065L43.1134 5.61012L43.1238 5.60144L41.8434 4.065ZM46.7934 1.365L47.436 3.25896L47.4565 3.25199L47.4769 3.24459L46.7934 1.365ZM63.4884 4.29L64.9115 2.88468L64.9026 2.87579L63.4884 4.29ZM58.4934 10.365L56.6784 11.2053L56.6825 11.2139L58.4934 10.365ZM51.9684 6.855L52.0592 8.85296L52.0683 8.8525L51.9684 6.855ZM49.8084 7.26L49.176 5.36263L49.1759 5.36263L49.8084 7.26ZM44.1834 13.155L46.0259 13.9329L46.0287 13.9263L46.0314 13.9197L44.1834 13.155ZM43.1934 23.505L41.3309 24.2338L41.3342 24.2423L43.1934 23.505ZM49.2684 27.51V25.51H49.2523L49.2361 25.5103L49.2684 27.51ZM54.2634 25.71L55.5128 27.2717L55.5155 27.2696L54.2634 25.71ZM65.0884 13.965C65.0884 15.6137 64.8472 19.135 62.7946 23.0761L66.3422 24.9239C68.7896 20.225 69.0884 16.0063 69.0884 13.965H65.0884ZM62.7996 23.0665C62.0227 24.5386 61.2484 25.5583 60.8534 26.085L64.0534 28.485C64.4684 27.9317 65.4041 26.7014 66.3372 24.9335L62.7996 23.0665ZM60.8917 26.0356C59.7289 27.489 57.29 30.2647 52.8536 31.3248L53.7832 35.2152C59.5168 33.8453 62.6579 30.231 64.0151 28.5344L60.8917 26.0356ZM52.8333 31.3297C52.2576 31.4736 50.6657 31.765 48.7734 31.765V35.765C51.0211 35.765 52.9392 35.4264 53.8035 35.2103L52.8333 31.3297ZM48.7734 31.765C43.5034 31.765 40.5645 29.6746 39.308 28.3134L36.3688 31.0266C38.3523 33.1754 42.3434 35.765 48.7734 35.765V31.765ZM39.3183 28.3247C38.2922 27.196 36.6434 24.5668 36.6434 19.95H32.6434C32.6434 25.5932 34.6846 29.174 36.3585 31.0153L39.3183 28.3247ZM36.6434 19.95C36.6434 17.9628 37.0126 16.1995 37.1687 15.5751L33.2881 14.6049C33.0842 15.4205 32.6434 17.5272 32.6434 19.95H36.6434ZM37.1674 15.5801C38.1243 11.7941 40.2332 7.97733 43.1133 5.61008L40.5735 2.51992C36.8836 5.55267 34.4025 10.1959 33.2894 14.5999L37.1674 15.5801ZM43.1238 5.60144C43.7921 5.04449 45.2006 4.01741 47.436 3.25896L46.1508 -0.528958C43.3462 0.42259 41.5147 1.73551 40.563 2.52856L43.1238 5.60144ZM47.4769 3.24459C48.2871 2.94996 50.3499 2.375 52.9584 2.375V-1.625C49.8069 -1.625 47.2797 -0.939967 46.1099 -0.514587L47.4769 3.24459ZM52.9584 2.375C56.5483 2.375 59.8041 3.43417 62.0742 5.70421L64.9026 2.87579C61.6827 -0.344174 57.2885 -1.625 52.9584 -1.625V2.375ZM62.0653 5.69529C65.0222 8.68962 65.0884 12.3271 65.0884 13.965H69.0884C69.0884 12.1829 69.0646 7.09037 64.9115 2.88471L62.0653 5.69529ZM61.1684 13.92C61.1684 13.4247 61.1866 11.3984 60.3043 9.51613L56.6825 11.2139C57.1502 12.2116 57.1684 13.4252 57.1684 13.92H61.1684ZM60.3083 9.52475C58.7508 6.16038 55.1457 4.69363 51.8685 4.85749L52.0683 8.8525C54.1911 8.74636 55.986 9.70962 56.6785 11.2052L60.3083 9.52475ZM51.8776 4.85706C50.624 4.91404 49.5251 5.24626 49.176 5.36263L50.4408 9.15737C50.6317 9.09374 51.3328 8.88595 52.0592 8.85294L51.8776 4.85706ZM49.1759 5.36263C46.8798 6.12802 44.1808 7.93053 42.3354 12.3903L46.0314 13.9197C47.426 10.5495 49.227 9.56198 50.4409 9.15737L49.1759 5.36263ZM42.3409 12.3771C41.398 14.6101 40.6534 17.8443 40.6534 20.31H44.6534C44.6534 18.4557 45.2588 15.7499 46.0259 13.9329L42.3409 12.3771ZM40.6534 20.31C40.6534 21.6522 40.8106 22.9041 41.3309 24.2338L45.0559 22.7762C44.7662 22.0359 44.6534 21.3078 44.6534 20.31H40.6534ZM41.3342 24.2423C42.6869 27.6534 45.7095 29.5677 49.3007 29.5097L49.2361 25.5103C47.2473 25.5423 45.7698 24.5766 45.0526 22.7677L41.3342 24.2423ZM49.2684 29.51C52.455 29.51 54.6953 27.9257 55.5128 27.2717L53.014 24.1483C52.4815 24.5743 51.1218 25.51 49.2684 25.51V29.51ZM55.5155 27.2696C57.4844 25.6889 58.8798 23.3466 59.7806 21.0058C60.6879 18.6481 61.1684 16.0989 61.1684 13.92H57.1684C57.1684 15.5661 56.7939 17.6294 56.0475 19.5692C55.2945 21.5259 54.2374 23.1661 53.0113 24.1504L55.5155 27.2696ZM113.753 1.23L115.543 2.1224L116.985 -0.770001H113.753V1.23ZM97.913 33V35H99.1507L99.7029 33.8924L97.913 33ZM88.913 33L86.9137 32.9474L86.8597 35H88.913V33ZM89.453 12.48L91.4524 12.5326L87.6244 11.67L89.453 12.48ZM80.363 33V35H81.6645L82.1917 33.81L80.363 33ZM71.363 33L69.3641 33.0651L69.4271 35H71.363V33ZM70.328 1.23V-0.770001H68.2618L68.3291 1.29512L70.328 1.23ZM77.978 1.23H79.978V-0.770001H77.978V1.23ZM77.978 24.09H75.978L79.8054 24.9029L77.978 24.09ZM88.148 1.23V-0.770001H86.8488L86.3207 0.417054L88.148 1.23ZM95.708 1.23L97.7078 1.26131L97.7396 -0.770001H95.708V1.23ZM95.348 24.225L93.3483 24.1937L97.1624 25.0665L95.348 24.225ZM106.013 1.23V-0.770001H104.736L104.199 0.388506L106.013 1.23ZM111.963 0.3376L96.1232 32.1076L99.7029 33.8924L115.543 2.1224L111.963 0.3376ZM97.913 31H88.913V35H97.913V31ZM90.9124 33.0526L91.4524 12.5326L87.4537 12.4274L86.9137 32.9474L90.9124 33.0526ZM87.6244 11.67L78.5344 32.19L82.1917 33.81L91.2817 13.29L87.6244 11.67ZM80.363 31H71.363V35H80.363V31ZM73.362 32.9349L72.327 1.16488L68.3291 1.29512L69.3641 33.0651L73.362 32.9349ZM70.328 3.23H77.978V-0.770001H70.328V3.23ZM75.978 1.23V24.09H79.978V1.23H75.978ZM79.8054 24.9029L89.9754 2.04294L86.3207 0.417054L76.1507 23.2771L79.8054 24.9029ZM88.148 3.23H95.708V-0.770001H88.148V3.23ZM93.7083 1.19869L93.3483 24.1937L97.3478 24.2563L97.7078 1.26131L93.7083 1.19869ZM97.1624 25.0665L107.827 2.07149L104.199 0.388506L93.5337 23.3835L97.1624 25.0665ZM106.013 3.23H113.753V-0.770001H106.013V3.23ZM140.641 1.23L142.591 1.67467L143.149 -0.770001H140.641V1.23ZM133.396 33V35H134.992L135.346 33.4447L133.396 33ZM125.656 33L123.744 33.5867L124.178 35H125.656V33ZM119.401 12.615L121.313 12.0283L119.085 4.7677L117.448 12.1839L119.401 12.615ZM114.901 33V35H116.508L116.854 33.4311L114.901 33ZM107.611 33L105.662 32.5527L105.1 35H107.611V33ZM114.901 1.23V-0.770001H113.308L112.952 0.7827L114.901 1.23ZM122.731 1.23L124.642 0.637993L124.205 -0.770001H122.731V1.23ZM129.076 21.705L127.166 22.297L129.444 29.649L131.033 22.1179L129.076 21.705ZM133.396 1.23V-0.770001H131.774L131.439 0.817111L133.396 1.23ZM138.691 0.785324L131.446 32.5553L135.346 33.4447L142.591 1.67467L138.691 0.785324ZM133.396 31H125.656V35H133.396V31ZM127.568 32.4133L121.313 12.0283L117.489 13.2017L123.744 33.5867L127.568 32.4133ZM117.448 12.1839L112.948 32.5689L116.854 33.4311L121.354 13.0461L117.448 12.1839ZM114.901 31H107.611V35H114.901V31ZM109.561 33.4473L116.851 1.6773L112.952 0.7827L105.662 32.5527L109.561 33.4473ZM114.901 3.23H122.731V-0.770001H114.901V3.23ZM120.821 1.822L127.166 22.297L130.987 21.113L124.642 0.637993L120.821 1.822ZM131.033 22.1179L135.353 1.64289L131.439 0.817111L127.119 21.2921L131.033 22.1179ZM133.396 3.23H140.641V-0.770001H133.396V3.23ZM174.796 15.36L175.691 17.1489L175.703 17.1426L174.796 15.36ZM172.231 16.26L171.699 14.332L166.197 15.8499L171.443 18.0983L172.231 16.26ZM175.426 18.105L174.109 19.6102L174.123 19.622L174.137 19.6336L175.426 18.105ZM177.136 26.115L175.239 25.4825L175.237 25.4894L175.234 25.4963L177.136 26.115ZM171.781 31.92L172.569 33.7583L172.581 33.753L172.594 33.7476L171.781 31.92ZM148.111 33L146.161 32.558L145.607 35H148.111V33ZM155.311 1.23V-0.770001H153.714L153.361 0.787951L155.311 1.23ZM176.101 2.94L174.866 4.51263L174.927 4.56083L174.992 4.6041L176.101 2.94ZM177.541 4.515L175.835 5.5579L175.855 5.59157L175.877 5.6244L177.541 4.515ZM170.341 7.98L171.853 6.67012L171.846 6.66298L170.341 7.98ZM169.441 7.305L168.595 9.11737L168.7 9.166L168.809 9.20237L169.441 7.305ZM161.701 6.945V4.945H160.102L159.75 6.50567L161.701 6.945ZM160.171 13.74L158.22 13.3007L157.671 15.74H160.171V13.74ZM170.296 12.165L168.669 11.0025L168.665 11.0075L170.296 12.165ZM167.236 19.725L166.604 21.6224L166.622 21.6283L166.64 21.634L167.236 19.725ZM158.866 19.5V17.5H157.264L156.914 19.0637L158.866 19.5ZM157.156 27.15L155.204 26.7137L154.66 29.15H157.156V27.15ZM168.631 25.35L170.274 26.4908L170.293 26.4639L170.31 26.4365L168.631 25.35ZM176.711 8.745C176.711 10.9456 175.721 12.6456 173.889 13.5774L175.703 17.1426C179.002 15.4644 180.711 12.3044 180.711 8.745H176.711ZM173.902 13.5711C173.445 13.7995 172.962 13.9838 171.699 14.332L172.763 18.188C174.111 17.8162 174.887 17.5505 175.691 17.1489L173.902 13.5711ZM171.443 18.0983C171.592 18.1618 172.062 18.3622 172.616 18.6513C173.193 18.9532 173.748 19.294 174.109 19.6102L176.743 16.5998C175.384 15.4103 173.277 14.5323 173.019 14.4217L171.443 18.0983ZM174.137 19.6336C174.998 20.3608 175.586 21.7438 175.586 23.415H179.586C179.586 20.9462 178.734 18.2792 176.716 16.5764L174.137 19.6336ZM175.586 23.415C175.586 23.8156 175.556 24.5325 175.239 25.4825L179.034 26.7475C179.527 25.2674 179.586 24.0944 179.586 23.415H175.586ZM175.234 25.4963C174.283 28.4202 172.003 29.633 170.969 30.0924L172.594 33.7476C173.99 33.127 177.559 31.2798 179.038 26.7337L175.234 25.4963ZM170.993 30.0817C170.251 30.3999 169.697 30.6089 168.992 30.7544C168.271 30.9031 167.315 31 165.796 31V35C167.473 35 168.721 34.8944 169.8 34.6719C170.895 34.4461 171.736 34.1151 172.569 33.7583L170.993 30.0817ZM165.796 31H148.111V35H165.796V31ZM150.062 33.442L157.262 1.67205L153.361 0.787951L146.161 32.558L150.062 33.442ZM155.311 3.23H169.621V-0.770001H155.311V3.23ZM169.621 3.23C171.89 3.23 173.54 3.47108 174.866 4.51263L177.337 1.36736C174.883 -0.561085 172.032 -0.770001 169.621 -0.770001V3.23ZM174.992 4.6041C174.983 4.5984 175.114 4.69217 175.308 4.8905C175.491 5.07793 175.683 5.30889 175.835 5.5579L179.248 3.4721C178.588 2.39311 177.701 1.60289 177.211 1.2759L174.992 4.6041ZM175.877 5.6244C176.153 6.03813 176.711 7.09861 176.711 8.745H180.711C180.711 6.16139 179.83 4.34186 179.205 3.4056L175.877 5.6244ZM172.971 9.87C172.971 9.46818 172.94 7.9243 171.853 6.67014L168.83 9.28986C168.852 9.31551 168.897 9.38633 168.932 9.5303C168.966 9.67077 168.971 9.80315 168.971 9.87H172.971ZM171.846 6.66298C171.553 6.32784 171.228 6.0663 170.971 5.88591C170.765 5.74178 170.425 5.52482 170.074 5.40763L168.809 9.20237C168.757 9.18513 168.718 9.16931 168.695 9.15963C168.67 9.14933 168.652 9.14081 168.641 9.13549C168.619 9.12518 168.61 9.1195 168.612 9.12099C168.618 9.12399 168.641 9.1381 168.677 9.16284C168.711 9.18698 168.747 9.21421 168.778 9.24155C168.811 9.26958 168.829 9.28917 168.836 9.29701L171.846 6.66298ZM170.287 5.49263C169.651 5.19601 168.917 5.07773 168.483 5.02275C168.01 4.96277 167.599 4.945 167.461 4.945V8.945C167.418 8.945 167.459 8.94442 167.581 8.95252C167.687 8.95961 167.828 8.97167 167.98 8.991C168.135 9.01063 168.284 9.03547 168.41 9.06464C168.547 9.09621 168.601 9.12003 168.595 9.11737L170.287 5.49263ZM167.461 4.945H161.701V8.945H167.461V4.945ZM159.75 6.50567L158.22 13.3007L162.122 14.1793L163.652 7.38433L159.75 6.50567ZM160.171 15.74H166.066V11.74H160.171V15.74ZM166.066 15.74C167.628 15.74 170.297 15.6191 171.927 13.3225L168.665 11.0075C168.315 11.5009 167.654 11.74 166.066 11.74V15.74ZM171.924 13.3275C172.326 12.7637 172.971 11.5556 172.971 9.87H168.971C168.971 10.5244 168.716 10.9363 168.669 11.0025L171.924 13.3275ZM171.351 22.74C171.351 21.2181 170.808 20.0357 170.029 19.1966C169.291 18.4015 168.425 18.0011 167.833 17.816L166.64 21.634C166.768 21.6739 166.959 21.7685 167.098 21.9184C167.197 22.0243 167.351 22.2369 167.351 22.74H171.351ZM167.869 17.8276C166.84 17.4848 165.622 17.5 165.481 17.5V21.5C165.555 21.5 165.758 21.5001 166.004 21.521C166.272 21.5437 166.485 21.5829 166.604 21.6224L167.869 17.8276ZM165.481 17.5H158.866V21.5H165.481V17.5ZM156.914 19.0637L155.204 26.7137L159.108 27.5863L160.818 19.9363L156.914 19.0637ZM157.156 29.15H164.041V25.15H157.156V29.15ZM164.041 29.15C165.99 29.15 168.531 29.0009 170.274 26.4908L166.989 24.2092C166.688 24.6424 166.383 24.834 166.012 24.9533C165.56 25.0984 164.963 25.15 164.041 25.15V29.15ZM170.31 26.4365C171.05 25.2937 171.351 24.0006 171.351 22.74H167.351C167.351 23.3694 167.203 23.8763 166.952 24.2635L170.31 26.4365ZM206.342 33V35H208.565L208.33 32.7887L206.342 33ZM198.602 33L196.606 33.1283L196.726 35H198.602V33ZM198.197 26.7L200.192 26.5717L200.072 24.7H198.197V26.7ZM186.497 26.7V24.7H185.321L184.749 25.7266L186.497 26.7ZM182.987 33V35H184.162L184.734 33.9734L182.987 33ZM174.662 33L172.955 31.9579L171.097 35H174.662V33ZM194.057 1.23V-0.770001H192.934L192.35 0.187881L194.057 1.23ZM202.967 1.23L204.955 1.01872L204.765 -0.770001H202.967V1.23ZM197.837 20.94V22.94H199.972L199.832 20.8092L197.837 20.94ZM196.982 7.89L198.977 7.75924L198.533 0.975378L195.233 6.91922L196.982 7.89ZM189.737 20.94L187.988 19.9692L186.339 22.94H189.737V20.94ZM206.342 31H198.602V35H206.342V31ZM200.597 32.8717L200.192 26.5717L196.201 26.8283L196.606 33.1283L200.597 32.8717ZM198.197 24.7H186.497V28.7H198.197V24.7ZM184.749 25.7266L181.239 32.0266L184.734 33.9734L188.244 27.6734L184.749 25.7266ZM182.987 31H174.662V35H182.987V31ZM176.369 34.0421L195.764 2.27212L192.35 0.187881L172.955 31.9579L176.369 34.0421ZM194.057 3.23H202.967V-0.770001H194.057V3.23ZM200.978 1.44127L204.353 33.2113L208.33 32.7887L204.955 1.01872L200.978 1.44127ZM199.832 20.8092L198.977 7.75924L194.986 8.02075L195.841 21.0708L199.832 20.8092ZM195.233 6.91922L187.988 19.9692L191.485 21.9108L198.73 8.86077L195.233 6.91922ZM189.737 22.94H197.837V18.94H189.737V22.94ZM228.842 31.785L228.168 29.902L228.167 29.9023L228.842 31.785ZM207.377 33L205.427 32.5553L204.87 35H207.377V33ZM214.622 1.23V-0.770001H213.027L212.672 0.785324L214.622 1.23ZM229.652 1.455L229.916 -0.527457L229.895 -0.530351L229.873 -0.532769L229.652 1.455ZM236.042 3.93L234.785 5.48588L234.796 5.49433L234.806 5.50264L236.042 3.93ZM231.902 13.83H229.902V13.8376L229.902 13.8453L231.902 13.83ZM230.507 9.285L228.988 10.5866L229.002 10.6027L229.016 10.6186L230.507 9.285ZM228.392 7.8L227.701 9.67669L227.73 9.68749L227.76 9.69737L228.392 7.8ZM220.922 7.305V5.305H219.322L218.971 6.86544L220.922 7.305ZM216.512 26.88L214.561 26.4404L214.011 28.88H216.512V26.88ZM227.402 24.9L228.698 26.4231L228.715 26.4091L228.731 26.3948L227.402 24.9ZM238.002 13.83C238.002 21.1344 234.432 27.6592 228.168 29.902L229.516 33.668C237.832 30.6908 242.002 22.2756 242.002 13.83H238.002ZM228.167 29.9023C226.093 30.6458 224.105 31 219.032 31V35C224.309 35 226.821 34.6342 229.517 33.6677L228.167 29.9023ZM219.032 31H207.377V35H219.032V31ZM209.327 33.4447L216.572 1.67467L212.672 0.785324L205.427 32.5553L209.327 33.4447ZM214.622 3.23H227.177V-0.770001H214.622V3.23ZM227.177 3.23C227.884 3.23 228.482 3.33734 229.431 3.44277L229.873 -0.532769C229.202 -0.607337 228.18 -0.770001 227.177 -0.770001V3.23ZM229.388 3.43745C232.395 3.8384 233.897 4.7687 234.785 5.48588L237.299 2.37412C235.847 1.2013 233.659 -0.0284081 229.916 -0.527457L229.388 3.43745ZM234.806 5.50264C236.2 6.59744 238.002 8.71066 238.002 13.83H242.002C242.002 7.51934 239.664 4.23256 237.278 2.35736L234.806 5.50264ZM233.902 13.83C233.902 10.8899 233.136 9.22341 231.997 7.95141L229.016 10.6186C229.261 10.8922 229.456 11.1783 229.606 11.6011C229.764 12.0471 229.902 12.7324 229.902 13.83H233.902ZM232.025 7.98342C230.925 6.69982 229.684 6.12263 229.024 5.90263L227.76 9.69737C227.91 9.74737 228.469 9.98017 228.988 10.5866L232.025 7.98342ZM229.083 5.92331C227.956 5.50783 226.901 5.305 224.882 5.305V9.305C226.553 9.305 227.118 9.46217 227.701 9.67669L229.083 5.92331ZM224.882 5.305H220.922V9.305H224.882V5.305ZM218.971 6.86544L214.561 26.4404L218.463 27.3196L222.873 7.74456L218.971 6.86544ZM216.512 28.88H220.022V24.88H216.512V28.88ZM220.022 28.88C222.681 28.88 225.978 28.7385 228.698 26.4231L226.106 23.3769C224.596 24.6615 222.673 24.88 220.022 24.88V28.88ZM228.731 26.3948C230.674 24.667 233.952 20.4157 233.902 13.8147L229.902 13.8453C229.942 19.0343 227.369 22.253 226.073 23.4052L228.731 26.3948ZM254.177 1.23L256.128 1.6686L256.676 -0.770001H254.177V1.23ZM251.972 11.04L253.817 11.8114L253.885 11.6496L253.923 11.4786L251.972 11.04ZM247.382 22.02V24.02H248.714L249.227 22.7914L247.382 22.02ZM244.457 22.02L242.458 21.9545L242.39 24.02H244.457V22.02ZM244.817 11.04L242.868 10.5929L242.824 10.7813L242.818 10.9745L244.817 11.04ZM247.067 1.23V-0.770001H245.474L245.118 0.782892L247.067 1.23ZM248.552 25.755L250.504 26.1914L251.049 23.755H248.552V25.755ZM246.932 33V35H248.534L248.884 33.4364L246.932 33ZM239.822 33L237.87 32.5636L237.325 35H239.822V33ZM241.442 25.755V23.755H239.84L239.49 25.3186L241.442 25.755ZM252.226 0.7914L250.021 10.6014L253.923 11.4786L256.128 1.6686L252.226 0.7914ZM250.127 10.2686L245.537 21.2486L249.227 22.7914L253.817 11.8114L250.127 10.2686ZM247.382 20.02H244.457V24.02H247.382V20.02ZM246.456 22.0855L246.816 11.1055L242.818 10.9745L242.458 21.9545L246.456 22.0855ZM246.766 11.4871L249.016 1.67711L245.118 0.782892L242.868 10.5929L246.766 11.4871ZM247.067 3.23H254.177V-0.770001H247.067V3.23ZM246.6 25.3186L244.98 32.5636L248.884 33.4364L250.504 26.1914L246.6 25.3186ZM246.932 31H239.822V35H246.932V31ZM241.774 33.4364L243.394 26.1914L239.49 25.3186L237.87 32.5636L241.774 33.4364ZM241.442 27.755H248.552V23.755H241.442V27.755Z" fill="black"/>
</g>
<defs>
<filter id="filter0_d_101_2" x="0.983398" y="0.375" width="255.194" height="37.39" filterUnits="userSpaceOnUse" color-interpolation-filters="sRGB">
<feFlood flood-opacity="0" result="BackgroundImageFix"/>
<feColorMatrix in="SourceAlpha" type="matrix" values="0 0 0 0 0 0 0 0 0 0 0 0 0 0 0 0 0 0 127 0" result="hardAlpha"/>
<feOffset dx="2" dy="4"/>
<feComposite in2="hardAlpha" operator="out"/>
<feColorMatrix type="matrix" values="0 0 0 0 0 0 0 0 0 0 0 0 0 0 0 0 0 0 1 0"/>
<feBlend mode="normal" in2="BackgroundImageFix" result="effect1_dropShadow_101_2"/>
<feBlend mode="normal" in="SourceGraphic" in2="effect1_dropShadow_101_2" result="shape"/>
</filter>
</defs>
</svg>
