<svg width="398" height="33" viewBox="0 0 398 33" fill="none" xmlns="http://www.w3.org/2000/svg">
<path d="M27.2535 32H21.4035L21.9435 4.46L16.8135 32H11.3685L6.10346 4.46L6.55346 32H0.793457V0.229999H10.3335L14.0685 22.46L17.8485 0.229999H27.2535V32ZM46.3999 32H40.7749C40.3249 31.505 40.2349 31.1 40.1449 29.975C39.8749 30.245 39.6499 30.56 39.3349 30.83C38.7499 31.415 37.6249 32.495 35.5099 32.495C35.0599 32.495 33.7999 32.45 32.7199 31.64C30.8299 30.245 30.9649 27.5 30.9649 25.475C30.9649 23.81 30.8749 22.1 32.0449 20.75C32.6749 19.985 33.5749 19.49 34.4749 19.04L40.0549 16.25V14.9C40.0549 13.55 39.9199 12.875 39.3349 12.47C39.1099 12.335 38.7499 12.155 38.1649 12.155C37.9399 12.155 36.9049 12.155 36.4999 13.055C36.3199 13.46 36.3199 14.225 36.3199 15.215V16.07H31.4149V13.46C31.4149 12.92 31.5049 11.345 32.7199 10.175C33.6649 9.23 35.5549 8.465 38.5249 8.465C39.1999 8.465 43.2049 8.42 44.8249 11.345C45.3649 12.29 45.3649 13.145 45.3649 13.55V26.375C45.3649 27.635 45.2299 30.47 46.0399 31.595C46.0849 31.73 46.1749 31.82 46.3999 32ZM40.0099 27.14V20.39L37.3999 22.1C37.2199 22.235 36.9949 22.415 36.9499 22.46C36.2749 23.09 36.1849 23.99 36.1849 25.79C36.1849 27.5 36.4099 28.49 37.4899 28.445C38.2549 28.445 38.8399 28.13 39.4249 27.635L40.0099 27.14ZM64.1517 32H58.8417V15.035C58.8417 13.595 58.7517 13.01 58.0317 12.56C57.8517 12.425 57.5367 12.29 56.9967 12.29C54.4767 12.29 54.7017 14.945 54.7017 15.395V32H49.3467V8.96H54.7917L54.7467 10.625C56.1417 9.275 57.2667 8.51 59.3367 8.51C61.4517 8.51 63.4317 9.59 63.9717 11.75C64.1517 12.38 64.1517 12.785 64.1517 14V32ZM82.9163 32H77.5613V15.62C77.5613 14.675 77.5613 14.27 77.3813 13.82C77.0663 13.145 76.3463 12.785 75.5813 12.785C74.1413 12.785 73.6913 13.865 73.5563 14.36C73.4663 14.72 73.4663 14.9 73.4663 15.305V32H68.1113V0.229999H73.3763L73.4213 10.805C74.0063 10.175 75.4463 8.51 78.1013 8.51C80.1713 8.51 81.9263 9.635 82.6013 11.66C82.7813 12.2 82.9163 12.785 82.9163 13.955V32ZM101.771 32H96.146C95.696 31.505 95.606 31.1 95.516 29.975C95.246 30.245 95.021 30.56 94.706 30.83C94.121 31.415 92.996 32.495 90.881 32.495C90.431 32.495 89.171 32.45 88.091 31.64C86.201 30.245 86.336 27.5 86.336 25.475C86.336 23.81 86.246 22.1 87.416 20.75C88.046 19.985 88.946 19.49 89.846 19.04L95.426 16.25V14.9C95.426 13.55 95.291 12.875 94.706 12.47C94.481 12.335 94.121 12.155 93.536 12.155C93.311 12.155 92.276 12.155 91.871 13.055C91.691 13.46 91.691 14.225 91.691 15.215V16.07H86.786V13.46C86.786 12.92 86.876 11.345 88.091 10.175C89.036 9.23 90.926 8.465 93.896 8.465C94.571 8.465 98.576 8.42 100.196 11.345C100.736 12.29 100.736 13.145 100.736 13.55V26.375C100.736 27.635 100.601 30.47 101.411 31.595C101.456 31.73 101.546 31.82 101.771 32ZM95.381 27.14V20.39L92.771 22.1C92.591 22.235 92.366 22.415 92.321 22.46C91.646 23.09 91.556 23.99 91.556 25.79C91.556 27.5 91.781 28.49 92.861 28.445C93.626 28.445 94.211 28.13 94.796 27.635L95.381 27.14ZM114.573 31.955C113.988 32.09 113.223 32.225 111.828 32.225C108.723 32.225 107.103 31.55 106.428 30.065C106.023 29.255 105.978 28.31 105.978 27.41V12.515H103.053V8.96H105.933V0.589999H111.243V8.96H114.438V12.515H111.243V25.655C111.243 26.375 111.243 26.555 111.378 26.915C111.693 27.995 112.728 28.175 113.673 28.175C113.988 28.175 114.258 28.13 114.573 28.085V31.955ZM126.79 31.955C126.205 32.09 125.44 32.225 124.045 32.225C120.94 32.225 119.32 31.55 118.645 30.065C118.24 29.255 118.195 28.31 118.195 27.41V12.515H115.27V8.96H118.15V0.589999H123.46V8.96H126.655V12.515H123.46V25.655C123.46 26.375 123.46 26.555 123.595 26.915C123.91 27.995 124.945 28.175 125.89 28.175C126.205 28.175 126.475 28.13 126.79 28.085V31.955ZM144.046 32H138.421C137.971 31.505 137.881 31.1 137.791 29.975C137.521 30.245 137.296 30.56 136.981 30.83C136.396 31.415 135.271 32.495 133.156 32.495C132.706 32.495 131.446 32.45 130.366 31.64C128.476 30.245 128.611 27.5 128.611 25.475C128.611 23.81 128.521 22.1 129.691 20.75C130.321 19.985 131.221 19.49 132.121 19.04L137.701 16.25V14.9C137.701 13.55 137.566 12.875 136.981 12.47C136.756 12.335 136.396 12.155 135.811 12.155C135.586 12.155 134.551 12.155 134.146 13.055C133.966 13.46 133.966 14.225 133.966 15.215V16.07H129.061V13.46C129.061 12.92 129.151 11.345 130.366 10.175C131.311 9.23 133.201 8.465 136.171 8.465C136.846 8.465 140.851 8.42 142.471 11.345C143.011 12.29 143.011 13.145 143.011 13.55V26.375C143.011 27.635 142.876 30.47 143.686 31.595C143.731 31.73 143.821 31.82 144.046 32ZM137.656 27.14V20.39L135.046 22.1C134.866 22.235 134.641 22.415 134.596 22.46C133.921 23.09 133.831 23.99 133.831 25.79C133.831 27.5 134.056 28.49 135.136 28.445C135.901 28.445 136.486 28.13 137.071 27.635L137.656 27.14ZM161.798 32H156.488V15.035C156.488 13.595 156.398 13.01 155.678 12.56C155.498 12.425 155.183 12.29 154.643 12.29C152.123 12.29 152.348 14.945 152.348 15.395V32H146.993V8.96H152.438L152.393 10.625C153.788 9.275 154.913 8.51 156.983 8.51C159.098 8.51 161.078 9.59 161.618 11.75C161.798 12.38 161.798 12.785 161.798 14V32ZM170.528 6.215L166.928 12.29H164.858L168.008 6.215H165.218V0.229999H170.528V6.215ZM185.89 25.34C185.89 27.095 185.89 28.895 184.675 30.38C183.685 31.595 182.065 32.45 178.78 32.45C176.215 32.45 173.38 31.955 172.255 29.255C171.76 28.085 171.76 26.69 171.76 26.285V23.9H176.71V25.7C176.71 26.465 176.755 26.735 176.845 27.14C176.935 27.68 177.385 28.625 178.78 28.625C178.96 28.625 179.545 28.625 179.995 28.31C180.445 28.04 180.895 27.32 180.895 26.105C180.895 24.44 180.625 24.08 179.32 23.135L174.82 19.94C172.66 18.41 172.075 17.06 172.075 14.405C172.12 9.815 174.91 8.51 179.05 8.51C182.425 8.51 184.27 9.68 184.99 10.985C185.53 11.885 185.62 12.83 185.62 13.775V16.34H180.985V14.675C180.985 14.315 181.075 12.155 179.005 12.155C178.78 12.155 178.465 12.155 178.015 12.38C177.34 12.785 177.16 13.505 177.16 14.225C177.16 15.575 177.655 16.025 178.69 16.745L183.64 20.21C184.09 20.525 184.63 21.11 185.035 21.605C185.575 22.37 185.89 23.405 185.89 25.34ZM226.414 32H220.564L221.104 4.46L215.974 32H210.529L205.264 4.46L205.714 32H199.954V0.229999H209.494L213.229 22.46L217.009 0.229999H226.414V32ZM244.795 26.06C244.795 27.68 244.57 28.85 243.49 30.11C241.465 32.54 238.27 32.45 237.37 32.45C236.29 32.45 235.48 32.315 235.075 32.225C234.175 32.045 231.7 31.28 230.8 28.58C230.53 27.815 230.395 27.095 230.395 25.475V15.17C230.395 13.595 230.575 12.965 230.845 12.245C231.925 9.365 234.94 8.51 237.685 8.51C238.405 8.51 242.815 8.465 244.255 11.885C244.615 12.695 244.795 13.415 244.795 14.945V26.06ZM239.485 26.33V14.63C239.485 13.19 239.35 12.56 238.63 12.11C238.27 11.84 237.82 11.84 237.64 11.84C237.055 11.84 236.74 12.02 236.56 12.155C235.705 12.785 235.75 13.73 235.75 14.675V26.375C235.75 26.78 235.705 28.76 237.595 28.76C239.62 28.76 239.485 26.69 239.485 26.33ZM261.872 25.34C261.872 27.095 261.872 28.895 260.657 30.38C259.667 31.595 258.047 32.45 254.762 32.45C252.197 32.45 249.362 31.955 248.237 29.255C247.742 28.085 247.742 26.69 247.742 26.285V23.9H252.692V25.7C252.692 26.465 252.737 26.735 252.827 27.14C252.917 27.68 253.367 28.625 254.762 28.625C254.942 28.625 255.527 28.625 255.977 28.31C256.427 28.04 256.877 27.32 256.877 26.105C256.877 24.44 256.607 24.08 255.302 23.135L250.802 19.94C248.642 18.41 248.057 17.06 248.057 14.405C248.102 9.815 250.892 8.51 255.032 8.51C258.407 8.51 260.252 9.68 260.972 10.985C261.512 11.885 261.602 12.83 261.602 13.775V16.34H256.967V14.675C256.967 14.315 257.057 12.155 254.987 12.155C254.762 12.155 254.447 12.155 253.997 12.38C253.322 12.785 253.142 13.505 253.142 14.225C253.142 15.575 253.637 16.025 254.672 16.745L259.622 20.21C260.072 20.525 260.612 21.11 261.017 21.605C261.557 22.37 261.872 23.405 261.872 25.34ZM275.237 31.955C274.652 32.09 273.887 32.225 272.492 32.225C269.387 32.225 267.767 31.55 267.092 30.065C266.687 29.255 266.642 28.31 266.642 27.41V12.515H263.717V8.96H266.597V0.589999H271.907V8.96H275.102V12.515H271.907V25.655C271.907 26.375 271.907 26.555 272.042 26.915C272.357 27.995 273.392 28.175 274.337 28.175C274.652 28.175 274.922 28.13 275.237 28.085V31.955ZM314.612 32H308.762L309.302 4.46L304.172 32H298.727L293.462 4.46L293.912 32H288.152V0.229999H297.692L301.427 22.46L305.207 0.229999H314.612V32ZM333.083 21.65H323.948V25.43C323.948 26.24 323.948 26.555 324.083 26.96C324.443 28.13 325.478 28.265 325.928 28.265C326.783 28.265 327.368 27.815 327.638 27.005C327.863 26.375 327.818 24.71 327.818 24.395H332.993V26.24C332.993 27.05 332.993 27.545 332.768 28.31C331.868 31.55 328.988 32.45 325.928 32.45C321.203 32.45 319.628 30.11 318.998 28.04C318.683 26.915 318.593 25.295 318.593 25.025V15.305C318.593 14.945 318.638 13.415 319.178 12.2C320.303 9.5 323.273 8.51 325.973 8.51C329.708 8.51 331.778 10.4 332.453 11.795C332.858 12.605 333.083 13.325 333.083 15.08V21.65ZM327.773 17.87V15.035C327.773 14.54 327.863 12.74 325.928 12.74C323.993 12.74 323.948 14.45 323.948 15.035V17.87H327.773ZM360.87 32H355.515V14.945C355.515 14.045 355.515 13.19 354.705 12.605C354.48 12.47 354.12 12.29 353.58 12.29C351.78 12.29 351.42 13.775 351.42 15.215V32H346.11V15.08C346.11 14.135 346.2 13.28 345.39 12.605C345.03 12.29 344.625 12.2 344.13 12.2C341.925 12.2 342.06 14.54 342.06 14.945V32H336.75V8.96H342.105V10.49C342.69 9.95 344.22 8.465 346.65 8.465C349.125 8.465 350.43 10.13 350.97 10.76C352.815 9.185 353.445 8.915 354.75 8.645C355.515 8.51 355.875 8.51 356.235 8.51C358.305 8.51 360.105 9.635 360.645 11.66C360.825 12.245 360.87 12.65 360.87 13.73V32ZM379.05 21.65H369.915V25.43C369.915 26.24 369.915 26.555 370.05 26.96C370.41 28.13 371.445 28.265 371.895 28.265C372.75 28.265 373.335 27.815 373.605 27.005C373.83 26.375 373.785 24.71 373.785 24.395H378.96V26.24C378.96 27.05 378.96 27.545 378.735 28.31C377.835 31.55 374.955 32.45 371.895 32.45C367.17 32.45 365.595 30.11 364.965 28.04C364.65 26.915 364.56 25.295 364.56 25.025V15.305C364.56 14.945 364.605 13.415 365.145 12.2C366.27 9.5 369.24 8.51 371.94 8.51C375.675 8.51 377.745 10.4 378.42 11.795C378.825 12.605 379.05 13.325 379.05 15.08V21.65ZM373.74 17.87V15.035C373.74 14.54 373.83 12.74 371.895 12.74C369.96 12.74 369.915 14.45 369.915 15.035V17.87H373.74ZM397.432 32H392.032L392.077 29.75C391.537 30.515 390.367 32.495 387.577 32.45C385.957 32.45 384.922 31.82 384.382 31.46C382.672 30.2 382.447 28.715 382.447 25.07V14.585C382.447 13.775 382.222 10.805 384.787 9.23C385.192 9.005 386.137 8.465 387.442 8.465C389.422 8.465 390.772 9.59 392.077 10.805V0.229999H397.432V32ZM392.077 25.16V15.26C392.077 14.225 392.032 13.505 391.087 12.965C390.502 12.65 390.052 12.605 389.782 12.605C389.557 12.605 389.062 12.65 388.612 12.965C387.712 13.595 387.757 14.54 387.757 15.53V25.34C387.757 26.69 387.892 27.185 388.522 27.59C388.702 27.725 389.242 27.95 389.827 27.95C390.592 27.95 391.267 27.635 391.672 27.05C391.987 26.6 392.077 26.15 392.077 25.16Z" fill="black"/>
</svg>
